<?xml version="1.0" encoding="utf-8"?>
<svg viewBox="19.112 33.402 103.19 122.87" xmlns="http://www.w3.org/2000/svg">
  <path d="M 36.272 33.402 L 118.992 33.402 C 120.818 33.408 122.297 34.886 122.302 36.712 L 122.302 129.032 C 122.152 131.612 118.822 131.672 115.222 131.512 L 35.052 131.512 C 30.072 131.512 26.002 135.582 26.002 140.562 C 26.002 145.542 30.072 149.612 35.052 149.612 L 115.222 149.612 L 115.222 139.982 L 122.302 139.982 L 122.302 152.222 C 122.302 154.452 120.482 156.272 118.252 156.272 L 35.402 156.272 C 26.442 156.282 19.112 148.952 19.112 139.992 L 19.112 50.562 C 19.112 41.122 26.832 33.402 36.272 33.402 Z M 39.462 46.802 L 42.322 46.802 C 43.782 46.802 44.982 47.772 44.982 48.952 L 44.982 116.422 C 44.982 117.602 43.782 118.572 42.322 118.572 L 39.462 118.572 C 38.002 118.572 36.802 117.602 36.802 116.422 L 36.802 48.952 C 36.812 47.762 38.002 46.802 39.462 46.802 Z" fill-rule="evenodd" clip-rule="evenodd" style="fill: rgb(42, 122, 228);"/>
</svg>