<?xml version="1.0" encoding="utf-8"?>
<svg viewBox="95.342 90.683 100 82.383" xmlns="http://www.w3.org/2000/svg">
  <path d="M 187.507 128.521 C 185.113 126.126 182.323 124.247 179.216 122.931 C 175.993 121.569 172.576 120.878 169.055 120.878 L 121.437 120.878 C 117.917 120.878 114.499 121.568 111.278 122.931 C 108.17 124.246 105.38 126.126 102.986 128.521 C 100.591 130.915 98.712 133.705 97.396 136.813 C 96.034 140.034 95.342 143.453 95.342 146.971 C 95.342 150.493 96.032 153.909 97.396 157.13 C 98.711 160.238 100.591 163.026 102.986 165.423 C 105.38 167.817 108.17 169.696 111.278 171.011 C 114.5 172.372 117.917 173.066 121.437 173.066 C 125.551 173.066 129.651 172.083 133.295 170.219 C 135.742 168.969 137.995 167.319 139.94 165.365 L 150.55 165.365 C 152.496 167.319 154.75 168.969 157.196 170.219 C 160.841 172.082 164.941 173.066 169.053 173.066 C 172.574 173.066 175.991 172.374 179.213 171.011 C 182.32 169.697 185.109 167.817 187.503 165.423 C 189.898 163.027 191.779 160.238 193.093 157.13 C 194.455 153.909 195.146 150.492 195.146 146.971 C 195.146 143.451 194.457 140.034 193.093 136.813 C 191.782 133.706 189.902 130.916 187.507 128.521 Z M 169.055 166.223 C 162.759 166.223 157.167 163.198 153.655 158.522 L 136.837 158.522 C 133.325 163.198 127.734 166.223 121.437 166.223 C 110.806 166.223 102.188 157.606 102.188 146.973 C 102.188 136.342 110.807 127.723 121.437 127.723 L 169.055 127.723 C 179.688 127.723 188.307 136.342 188.307 146.973 C 188.305 157.605 179.688 166.223 169.055 166.223 Z" style="fill: rgb(42, 122, 228);"/>
  <circle cx="169.055" cy="154.672" r="3.849" style="fill: rgb(42, 122, 228);"/>
  <circle cx="176.756" cy="146.972" r="3.85" style="fill: rgb(42, 122, 228);"/>
  <circle cx="161.357" cy="146.972" r="3.85" style="fill: rgb(42, 122, 228);"/>
  <circle cx="169.055" cy="139.273" r="3.849" style="fill: rgb(42, 122, 228);"/>
  <path d="M 131.062 143.122 L 125.287 143.122 L 125.287 137.349 C 125.287 136.287 124.425 135.424 123.363 135.424 L 119.513 135.424 C 118.45 135.424 117.588 136.286 117.588 137.349 L 117.588 143.122 L 111.814 143.122 C 110.751 143.122 109.89 143.984 109.89 145.048 L 109.89 148.898 C 109.89 149.961 110.752 150.824 111.814 150.824 L 117.588 150.824 L 117.588 156.597 C 117.588 157.661 118.45 158.522 119.513 158.522 L 123.363 158.522 C 124.426 158.522 125.287 157.662 125.287 156.597 L 125.287 150.824 L 131.062 150.824 C 132.125 150.824 132.987 149.962 132.987 148.898 L 132.987 145.048 C 132.987 143.984 132.124 143.122 131.062 143.122 Z" style="fill: rgb(42, 122, 228);"/>
  <path d="M 159.394 108.252 L 177.773 108.252 C 187.46 108.252 195.342 100.371 195.342 90.683 L 188.497 90.683 C 188.497 96.597 183.685 101.408 177.772 101.408 L 159.394 101.408 C 149.706 101.408 141.825 109.289 141.825 118.977 L 148.669 118.977 C 148.668 113.064 153.481 108.252 159.394 108.252 Z" style="fill: rgb(42, 122, 228);"/>
</svg>